<mxfile host="app.diagrams.net" modified="2023-08-21T11:58:02.127Z" agent="Mozilla/5.0 (X11; Linux x86_64; rv:109.0) Gecko/20100101 Firefox/115.0" etag="2crDMxQJv-7r3ZxMHfnG" version="21.6.8" type="device">
  <diagram name="Page-1" id="Qx_pXZXx4m_uFdPb8SC9">
    <mxGraphModel dx="988" dy="563" grid="1" gridSize="10" guides="1" tooltips="1" connect="1" arrows="1" fold="1" page="1" pageScale="1" pageWidth="850" pageHeight="1100" math="0" shadow="0">
      <root>
        <mxCell id="0" />
        <mxCell id="1" parent="0" />
        <mxCell id="8-7DbT-Rwz9wWumdzvov-2" style="edgeStyle=orthogonalEdgeStyle;rounded=0;orthogonalLoop=1;jettySize=auto;html=1;exitX=1;exitY=0.25;exitDx=0;exitDy=0;entryX=0;entryY=0.25;entryDx=0;entryDy=0;" edge="1" parent="1" source="AgD02Y9NAy6FEA0AyiX0-1" target="8-7DbT-Rwz9wWumdzvov-1">
          <mxGeometry relative="1" as="geometry" />
        </mxCell>
        <mxCell id="AgD02Y9NAy6FEA0AyiX0-1" value="&lt;font style=&quot;font-size: 14px;&quot;&gt;1. Free&lt;/font&gt;" style="rounded=1;whiteSpace=wrap;html=1;fillColor=none;" parent="1" vertex="1">
          <mxGeometry x="80" y="120" width="120" height="60" as="geometry" />
        </mxCell>
        <mxCell id="8-7DbT-Rwz9wWumdzvov-6" style="edgeStyle=orthogonalEdgeStyle;rounded=0;orthogonalLoop=1;jettySize=auto;html=1;exitX=0.5;exitY=1;exitDx=0;exitDy=0;entryX=0.25;entryY=1;entryDx=0;entryDy=0;" edge="1" parent="1" source="AgD02Y9NAy6FEA0AyiX0-2" target="AgD02Y9NAy6FEA0AyiX0-1">
          <mxGeometry relative="1" as="geometry">
            <Array as="points">
              <mxPoint x="620" y="240" />
              <mxPoint x="110" y="240" />
            </Array>
          </mxGeometry>
        </mxCell>
        <mxCell id="AgD02Y9NAy6FEA0AyiX0-2" value="&lt;font style=&quot;font-size: 14px;&quot;&gt;3. Subscribed&lt;/font&gt;" style="rounded=1;whiteSpace=wrap;html=1;fillColor=none;" parent="1" vertex="1">
          <mxGeometry x="560" y="120" width="120" height="60" as="geometry" />
        </mxCell>
        <mxCell id="AgD02Y9NAy6FEA0AyiX0-7" value="&lt;font style=&quot;font-size: 14px;&quot;&gt;Configuring&lt;/font&gt;" style="text;html=1;strokeColor=none;fillColor=none;align=center;verticalAlign=middle;whiteSpace=wrap;rounded=0;" parent="1" vertex="1">
          <mxGeometry x="230" y="110" width="60" height="30" as="geometry" />
        </mxCell>
        <mxCell id="AgD02Y9NAy6FEA0AyiX0-8" value="&lt;font style=&quot;font-size: 14px;&quot;&gt;Deconfigure&lt;/font&gt;" style="text;html=1;align=center;verticalAlign=middle;resizable=0;points=[];autosize=1;strokeColor=none;fillColor=none;" parent="1" vertex="1">
          <mxGeometry x="210" y="185" width="100" height="30" as="geometry" />
        </mxCell>
        <mxCell id="8-7DbT-Rwz9wWumdzvov-3" style="edgeStyle=orthogonalEdgeStyle;rounded=0;orthogonalLoop=1;jettySize=auto;html=1;exitX=1;exitY=0.25;exitDx=0;exitDy=0;entryX=0;entryY=0.25;entryDx=0;entryDy=0;" edge="1" parent="1" source="8-7DbT-Rwz9wWumdzvov-1" target="AgD02Y9NAy6FEA0AyiX0-2">
          <mxGeometry relative="1" as="geometry" />
        </mxCell>
        <mxCell id="8-7DbT-Rwz9wWumdzvov-7" style="edgeStyle=orthogonalEdgeStyle;rounded=0;orthogonalLoop=1;jettySize=auto;html=1;exitX=0.5;exitY=1;exitDx=0;exitDy=0;entryX=0.75;entryY=1;entryDx=0;entryDy=0;" edge="1" parent="1" source="8-7DbT-Rwz9wWumdzvov-1" target="AgD02Y9NAy6FEA0AyiX0-1">
          <mxGeometry relative="1" as="geometry">
            <Array as="points">
              <mxPoint x="380" y="210" />
              <mxPoint x="170" y="210" />
            </Array>
          </mxGeometry>
        </mxCell>
        <mxCell id="8-7DbT-Rwz9wWumdzvov-1" value="&lt;font style=&quot;font-size: 14px;&quot;&gt;2. Configuring&lt;/font&gt;" style="rounded=1;whiteSpace=wrap;html=1;fillColor=none;" vertex="1" parent="1">
          <mxGeometry x="320" y="120" width="120" height="60" as="geometry" />
        </mxCell>
        <mxCell id="8-7DbT-Rwz9wWumdzvov-8" value="&lt;font style=&quot;font-size: 14px;&quot;&gt;Deconfigure&lt;/font&gt;" style="text;html=1;align=center;verticalAlign=middle;resizable=0;points=[];autosize=1;strokeColor=none;fillColor=none;" vertex="1" parent="1">
          <mxGeometry x="450" y="215" width="100" height="30" as="geometry" />
        </mxCell>
        <mxCell id="8-7DbT-Rwz9wWumdzvov-9" value="&lt;font style=&quot;font-size: 14px;&quot;&gt;Configured&lt;/font&gt;" style="text;html=1;strokeColor=none;fillColor=none;align=center;verticalAlign=middle;whiteSpace=wrap;rounded=0;" vertex="1" parent="1">
          <mxGeometry x="470" y="110" width="60" height="30" as="geometry" />
        </mxCell>
      </root>
    </mxGraphModel>
  </diagram>
</mxfile>
